<svg preserveAspectRatio="none" overflow="visible" style="display: block;" width="20" height="20" viewBox="0 0 20 20" fill="none" xmlns="http://www.w3.org/2000/svg">
<g id="Shape">
<g id="Normal">
<path d="M10.0002 12.418C9.58595 12.418 9.25016 12.0822 9.25016 11.668V3.01797L7.50027 4.70752C7.20229 4.99523 6.72749 4.9869 6.43978 4.68891C6.15207 4.39093 6.16039 3.91613 6.45838 3.62842L9.4583 0.731945C9.59483 0.589312 9.78712 0.500488 10.0002 0.500488C10.2132 0.500488 10.4055 0.589321 10.542 0.731966L13.5419 3.62842C13.8399 3.91613 13.8483 4.39093 13.5605 4.68891C13.2728 4.9869 12.798 4.99523 12.5 4.70752L10.7502 3.01797V11.668C10.7502 12.0822 10.4144 12.418 10.0002 12.418Z" fill="#9CA2B1"/>
<path d="M5.91711 6.33361C6.33116 6.33361 6.66682 6.66927 6.66682 7.08332C6.66682 7.49737 6.33116 7.83302 5.91711 7.83302H5.45871C4.77991 7.83302 4.61838 7.84227 4.50878 7.87789C4.22971 7.96856 4.01092 8.18735 3.92024 8.46642C3.88463 8.57602 3.87538 8.73755 3.87538 9.41635V15.583C3.87538 16.2618 3.88463 16.4234 3.92024 16.533C4.01092 16.812 4.22971 17.0308 4.50878 17.1215C4.61838 17.1571 4.77991 17.1664 5.45871 17.1664H14.542C15.2208 17.1664 15.3824 17.1571 15.492 17.1215C15.771 17.0308 15.9898 16.812 16.0805 16.533C16.1161 16.4234 16.1254 16.2618 16.1254 15.583V9.41635C16.1254 8.73755 16.1161 8.57602 16.0805 8.46642C15.9898 8.18735 15.771 7.96856 15.492 7.87789C15.3824 7.84227 15.2208 7.83302 14.542 7.83302H14.0832C13.6691 7.83302 13.3335 7.49737 13.3335 7.08332C13.3335 6.66927 13.6691 6.33361 14.0832 6.33361H14.2378C14.6793 6.3336 15.0553 6.33359 15.364 6.35881C15.6883 6.38531 16.0038 6.44334 16.3054 6.59701C16.7601 6.82871 17.1298 7.19841 17.3615 7.65314C17.5152 7.95475 17.5732 8.27024 17.5997 8.59454C17.625 8.90322 17.6249 9.27918 17.6249 9.72071V15.2798C17.6249 15.7213 17.625 16.0973 17.5997 16.406C17.5732 16.7303 17.5152 17.0458 17.3615 17.3474C17.1298 17.8022 16.7601 18.1719 16.3054 18.4035C16.0038 18.5572 15.6883 18.6153 15.364 18.6418C15.0553 18.667 14.6793 18.667 14.2378 18.6669H5.76209C5.32054 18.667 4.94455 18.667 4.63586 18.6418C4.31156 18.6153 3.99606 18.5572 3.69445 18.4035C3.23973 18.1719 2.87003 17.8022 2.63833 17.3474C2.48465 17.0458 2.42663 16.7303 2.40013 16.406C2.37491 16.0973 2.37492 15.7214 2.37493 15.2799V9.72078C2.37492 9.27925 2.37491 8.90322 2.40013 8.59454C2.42663 8.27024 2.48465 7.95475 2.63833 7.65314C2.87003 7.19841 3.23973 6.82871 3.69445 6.59701C3.99606 6.44334 4.31156 6.38531 4.63586 6.35881C4.94454 6.33359 5.3205 6.3336 5.76202 6.33361H5.91711Z" fill="#9CA2B1"/>
</g>
</g>
</svg>
